PathFileType	4	(X/Y/Z)	69_2_40_p0_0-156.trc
DataRate	CameraRate	NumFrames	NumMarkers	Units	OrigDataRate	OrigDataStartFrame	OrigNumFrames
47.0	47.0	6	27	m	47.0	78	157
Frame#	Time	RHip			RKnee			RAnkle			RBigToe			RSmallToe			RHeel			LHip			LKnee			LAnkle			LBigToe			LSmallToe			LHeel			Neck			Head			Nose			RShoulder			RElbow			RWrist			RThumb			RIndex			RPinky			LShoulder			LElbow			LWrist			LThumb			LIndex			LPinky			
		X1	Y1	Z1	X2	Y2	Z2	X3	Y3	Z3	X4	Y4	Z4	X5	Y5	Z5	X6	Y6	Z6	X7	Y7	Z7	X8	Y8	Z8	X9	Y9	Z9	X10	Y10	Z10	X11	Y11	Z11	X12	Y12	Z12	X13	Y13	Z13	X14	Y14	Z14	X15	Y15	Z15	X16	Y16	Z16	X17	Y17	Z17	X18	Y18	Z18	X19	Y19	Z19	X20	Y20	Z20	X21	Y21	Z21	X22	Y22	Z22	X23	Y23	Z23	X24	Y24	Z24	X25	Y25	Z25	X26	Y26	Z26	X27	Y27	Z27	
78	1.6595744680851063	0.25802439684414596	0.5149569173543492	0.4782073567266334	0.23800146539935724	0.5476809704483441	0.9111550246161155	0.2072046126122999	0.5834710865764298	1.3218689925931995	0.250725683365835	0.4318297195846021	1.3261922504542454	0.3010278435654212	0.4818419699251187	1.3247764836999334	0.14876518349712115	0.6839298139769785	1.4086960150372263	0.08083688037748418	0.5182939878175111	0.46227719874131	0.04127590439975073	0.5368765317066889	0.9104871367109428	0.032480987072116926	0.5591274886298183	1.3354414379885449	0.11426727628193328	0.3793720370325302	1.3077881484053133	0.050778754604333856	0.41729358714208475	1.3244152238877394	0.023471346531343387	0.6162070303941743	1.3993621382583261	0.15511131473753714	0.544423946425628	0.00738168268347127	0.15687328053985825	0.4326987874119741	-0.2356883182691477	0.14129228524178042	0.3939943469114875	-0.09169009988923635	0.3146720407310414	0.5300791524146552	0.04721827004367575	0.347174450220772	0.496609138373334	0.30535348349943997	0.3561381663990959	0.4130878596835194	0.5241535008018049	0.3268060938382141	0.36185057851027636	0.630432464760527	0.3557202826060342	0.35759528152641856	0.6441690649112572	0.3703700763652509	0.3962424349081962	0.6467571303929317	0.033928489743649544	0.5529177818230903	0.03995082567443919	0.02006222858898682	0.4243102119486803	0.2098650777020268	0.07487542220595178	0.40576265750351037	0.04088196138294037	0.0960531404959413	0.42720833453734364	-0.018339104018136005	0.13111195996822453	0.35464249216374216	-0.05147729639055336	0.12332856635218262	0.34184182305903316	-0.013939344582014172
79	1.6808510638297873	0.2578797315907191	0.5134439897555685	0.47401580752662703	0.23748672300356502	0.5466989754585392	0.9191619479403417	0.20721039401731556	0.5837056763281196	1.3220584585378765	0.2508460835518712	0.4310878301357939	1.326008283418085	0.3011142987122141	0.4809245395885542	1.3248737783788904	0.1508460027940373	0.7032193177585669	1.4184456261668659	0.06813595991073983	0.525546290803956	0.46051554477917084	0.041247590016408577	0.5367341373985595	0.9104619463916876	0.032595568521122796	0.5588851386911132	1.3352857645587675	0.11115138631217009	0.37596268601324573	1.3065273934634718	0.050922396916549345	0.4169475455983835	1.3241732471411336	0.02373497099480714	0.6162791616591864	1.3992107465857735	0.15509582574991304	0.5444512905316322	0.007389868022437339	0.15655937757287997	0.4336865442557522	-0.23201812967718816	0.1412570718158208	0.3942097590895965	-0.09151948280962624	0.31803445079691806	0.5332200968773522	0.04747676838598531	0.34722485417318205	0.49652664881716485	0.30539490347605225	0.3558906127690654	0.4132876345869597	0.5241734051953063	0.3270705481336439	0.36102640115043194	0.6301897615596985	0.3472815127681407	0.3682370635341771	0.6481776291513355	0.37059696563660993	0.39587175462339297	0.6460431638435271	0.033759847391101286	0.5524495796767408	0.04300321015847793	0.010402219824640586	0.4351384441118473	0.2122378099331381	0.0737916726634922	0.40742582281770573	0.048062868184976196	0.09605523579036335	0.42745556834384685	-0.018178823148822357	0.12284201535724545	0.3648056222820036	-0.04392783486395178	0.12524215494068816	0.3299802505025663	-0.015078567314464737
80	1.702127659574468	0.25795656956386137	0.5133448338065184	0.473915581702545	0.23744929955360877	0.5467568200946352	0.9192921839607971	0.2071875740067116	0.5837045245376313	1.3220716373496577	0.24946408847518256	0.43153850973574653	1.3310017418284223	0.2998873833705077	0.4811214212980762	1.3294801504189033	0.15088846910081308	0.7031153963121571	1.41834413942522	0.06818649814353461	0.5255262993688543	0.4604103419714089	0.0389397440201732	0.5196881201518723	0.9084451520565451	0.03264622751868484	0.5588155363682292	1.33511402758133	0.12039408329475698	0.3650373169205814	1.2991225431980182	0.05085598036540846	0.4171138755910904	1.3245096812266501	0.02378110586055037	0.6160933327947812	1.3991364764180108	0.15508527843945163	0.5449473463864106	0.007561184726924393	0.15688029188271257	0.4325615565892957	-0.23578583872419556	0.1421500434577889	0.3826271839058018	-0.09237164322399566	0.3179243515073524	0.534431362053583	0.05102280806406171	0.347213083603329	0.496238823568927	0.30526796560966407	0.3563556218788692	0.4022375225538743	0.5210850232348032	0.32061923826920197	0.35963641253825723	0.6304209327760337	0.34710087220991814	0.36763318001046935	0.6479976416233817	0.37007073803009294	0.39685571237748657	0.6424458119521506	0.031558203686138396	0.5665666163520052	0.04454229169852876	0.010326210696962107	0.4351974208986198	0.2122456774962385	0.07376854805260284	0.40831220445258476	0.051596957771817754	0.1042789360381503	0.4182284197349328	-0.015871385497080972	0.13332257507276296	0.3435244597575879	-0.048163961733847266	0.13333517024082636	0.32076650884951585	-0.01627981600505665
81	1.7234042553191489	0.2578815445155081	0.5133261046565308	0.4739448384083893	0.237505101908358	0.5465720381633208	0.9192017699037319	0.207281603646014	0.583560269429742	1.3219872558682098	0.25061241458883016	0.43204579229244866	1.3263895108845372	0.3010391598692055	0.48161191477130566	1.3249157276088077	0.1509509536899009	0.7030264192768809	1.4182340217595315	0.06746391759249824	0.5253711640663848	0.4644189516288514	0.038967086511238286	0.5194538898779247	0.9084396886338089	0.03268566556564408	0.5587393249547484	1.3352644940346425	0.12048513197546919	0.3647494877278123	1.299023965573144	0.05093628322970442	0.41689417454741223	1.324430194730142	0.02391686541033282	0.6157785827721272	1.3988882479505589	0.1550340156517409	0.5449728053028241	0.007584409933268602	0.15690408125995717	0.4326457250556228	-0.23577291801291722	0.14225977726077804	0.38234402906715853	-0.08892456542748538	0.31796554622947976	0.5344546689669685	0.05108656858508382	0.34719529653615827	0.49611528915290326	0.30522132743310176	0.35613093093044235	0.4022398703076265	0.5210596843172379	0.32835879505197735	0.34954367451364343	0.6225234077906235	0.3466865797705151	0.36747476339418406	0.6472397127116227	0.36221461711544695	0.4069431041337611	0.6428549215338134	0.021988733018036753	0.578375210426592	0.04278313174983686	0.01028777985786437	0.43510546727859156	0.21230118007919926	0.07411956760623896	0.408316084109057	0.04853973966364789	0.09617582288708447	0.4280154460092891	-0.014308384935605052	0.13327986571463046	0.3435665702761918	-0.04810180816937661	0.13350034367772912	0.3210032228208824	-0.018411960072663658
82	1.7446808510638299	0.25793277392660713	0.5132808031037566	0.47381726052637496	0.23747855661415163	0.5466736557330343	0.9190895386333565	0.208468455520641	0.5832561554884591	1.317501837122767	0.2505558370298066	0.43297713044760816	1.326620624669608	0.30098198496105605	0.48259973568817827	1.3248263987476965	0.1525446860302716	0.6889001376051852	1.4104732954714168	0.07128975867954222	0.5284169644088585	0.4607409871654407	0.043367322057595886	0.5228676067556561	0.9049078325917467	0.032763141683230815	0.5586625642831607	1.3353011774633312	0.12367854314399064	0.3681067924797747	1.2999878670245286	0.05109466974324922	0.4170602620656432	1.324003594227561	0.024043683765833934	0.6155403929167902	1.3986298582164105	0.15523553262804973	0.5447609984540337	0.011167893915638659	0.1568983887877513	0.4325700903687232	-0.23580387522140459	0.14233246540937186	0.3823270964354422	-0.08890551124827412	0.31806474443371235	0.5332829995039545	0.04742984496705835	0.3471825506126771	0.49603619853610253	0.3052763712002485	0.35236659687817035	0.4000317311075622	0.5207070094860484	0.3209981275990953	0.3598108945560652	0.6267225738307989	0.3382413434821419	0.3784408099752362	0.6517262603778595	0.3700491126683606	0.3958566182340789	0.6378634436269366	0.021781342674013705	0.5790378925334979	0.04297669313649404	0.010271188216444106	0.43524350252038324	0.21223194015418276	0.07410669463633911	0.4084715770163059	0.04844787741252438	0.10456664513922234	0.41733058572117254	-0.01961338990881706	0.13096224586071178	0.3556099559290206	-0.047187224627334316	0.12352556660616443	0.341922457883645	-0.016263373568553813
83	1.7659574468085106	0.2584065062456094	0.5135619626077595	0.47010569505732946	0.23833042262047427	0.5334586775428866	0.9140028870506803	0.2084369351725599	0.5833639071765986	1.317528908317765	0.25058433781875344	0.4332600698015094	1.3266216130435298	0.3010192270953397	0.4830153582324408	1.3247162025224788	0.15260166909230116	0.6889597206948045	1.4105011584298295	0.07141118034027337	0.5283230646297506	0.4606982801698023	0.04242037358608255	0.5227372575895263	0.9090362592575328	0.03270109293680232	0.5587123369479866	1.3353214253448795	0.1236292501902642	0.36786818488521156	1.299971249054979	0.05091059860601927	0.41721284036266026	1.3243427904773306	0.02379868731355578	0.6175636630597016	1.4041731256402197	0.1583649336387113	0.5478255978578078	0.011478290066615777	0.15681028062118332	0.4326208060257694	-0.23586260718439747	0.1414567063982315	0.39380400315188835	-0.08801309018450328	0.30970253536735676	0.5454870559907199	0.049130867525200385	0.347159138577851	0.4959093420941857	0.3052385783256294	0.3527676866313729	0.40016747246983186	0.5169982612433728	0.3215758052398057	0.35934429253420375	0.6229556941392744	0.3304921225367482	0.38956194520065257	0.6527877288789204	0.3784852134417931	0.3842437556942124	0.6296727567262164	0.02174433865530059	0.5790382957075824	0.04277430509521696	0.010448186656065873	0.4349061769975118	0.21200330531830744	0.07493393679332734	0.4071905397199956	0.04160941151044574	0.10977585813181868	0.42193340775352695	-0.017889281313126167	0.13135512486704773	0.35548352869225797	-0.049407321740086094	0.1318739046471483	0.3324181805710379	-0.01721731255144915
